<svg width="164" height="74" viewBox="0 0 164 74" fill="none" xmlns="http://www.w3.org/2000/svg">
<g clip-path="url(#clip0_851_168624)">
<path d="M25.3979 73.7079H0V0H25.3979V73.7079Z" fill="#EBDD2D"/>
<path d="M76.1762 40.8262C76.1762 43.4077 75.6199 45.7197 74.4986 47.7624C73.3774 49.805 71.8302 51.526 69.8658 52.908C67.8927 54.2987 65.572 55.3504 62.8949 56.0806C60.2177 56.8107 57.3233 57.1758 54.2029 57.1758H52.9599V73.6036H40.9824V24.9807H55.0026C58.0708 24.9807 60.9044 25.2936 63.512 25.9281C66.1196 26.5627 68.3534 27.5188 70.2309 28.8139C72.1084 30.1003 73.5599 31.7431 74.6116 33.7422C75.6547 35.7414 76.1849 38.0969 76.1849 40.8262H76.1762ZM64.642 40.8957C64.642 36.4193 61.452 34.1768 55.0808 34.1768H52.9599V47.9797H54.933C58.0969 47.9797 60.5046 47.3451 62.1647 46.0848C63.8162 44.8158 64.6506 43.0948 64.6506 40.9044L64.642 40.8957Z" fill="#595757"/>
<path d="M84.3203 24.9807H114.621V34.4723H96.2978V44.2595H113.751V53.7511H96.2978V64.1206H114.846V73.6123H84.329V24.9807H84.3203Z" fill="#898989"/>
<path d="M149.815 22.7729C152.335 22.7729 154.873 23.0163 157.411 23.4944C159.958 23.9811 162.149 24.6765 163.991 25.5978L162.244 34.3767C160.793 33.7944 159.132 33.2902 157.264 32.8817C155.395 32.4645 153.544 32.2646 151.701 32.2646C146.755 32.2646 142.852 33.5597 139.993 36.1499C137.133 38.7401 135.699 42.6776 135.699 47.9623C135.699 53.247 137.124 57.1757 139.993 59.7746C142.852 62.3648 146.755 63.66 151.701 63.66C153.544 63.66 155.395 63.4513 157.264 63.0428C159.132 62.6256 160.793 62.1302 162.244 61.5478L163.991 70.3267C162.149 71.248 159.958 71.9434 157.411 72.4302C154.865 72.9082 152.335 73.1516 149.815 73.1516C145.547 73.1516 141.792 72.5171 138.541 71.2567C135.29 69.9877 132.578 68.2406 130.397 65.9981C128.215 63.7556 126.564 61.1045 125.451 58.0363C124.339 54.968 123.782 51.6129 123.782 47.9623C123.782 44.3116 124.339 40.9565 125.451 37.8883C126.564 34.82 128.215 32.169 130.397 29.9264C132.578 27.6926 135.29 25.9368 138.541 24.6678C141.792 23.3988 145.547 22.7729 149.815 22.7729Z" fill="#B5B5B6"/>
</g>
<defs>
<clipPath id="clip0_851_168624">
<rect width="164" height="73.7079" fill="white"/>
</clipPath>
</defs>
</svg>
